<svg width="40" height="32" viewBox="0 0 40 32" fill="none" xmlns="http://www.w3.org/2000/svg">
<path d="M38.8411 1.18201C36.7823 -0.878301 33.4959 0.380999 33.4959 0.380999C29.7533 2.49834 26.3681 5.18463 23.4633 8.34215C19.9434 12.0857 16.6459 16.0295 13.5878 20.1535C11.3086 17.8568 3.73701 10.9324 0.165281 15.7095C0.0579953 15.8514 0 16.0241 0 16.2016C0 16.3791 0.0579953 16.5518 0.165281 16.6937C1.71727 18.7361 7.9864 27.0057 9.81771 29.8043C10.2337 30.4754 10.8159 31.0295 11.5088 31.4138C12.2018 31.7982 12.9824 32 13.7762 32C14.57 32 15.3506 31.7982 16.0436 31.4138C16.7365 31.0295 17.3187 30.4754 17.7347 29.8043C21.3929 24.4792 25.4752 19.4537 29.9424 14.776C31.9836 12.6434 35.9371 8.94913 39.5882 5.61079C39.5882 5.61079 40.8999 3.24231 38.8411 1.18201Z" fill="#E82E5F"/>
</svg>
