<svg width="40" height="33" viewBox="0 0 40 33" fill="none" xmlns="http://www.w3.org/2000/svg">
<path d="M38.8411 1.21894C36.7823 -0.905748 33.4959 0.392905 33.4959 0.392905C29.7533 2.57641 26.3681 5.34665 23.4633 8.60284C19.9434 12.4634 16.6459 16.5304 13.5878 20.7833C11.3086 18.4149 3.73701 11.2741 0.165281 16.2004C0.0579953 16.3468 0 16.5249 0 16.7079C0 16.8909 0.0579953 17.069 0.165281 17.2154C1.71727 19.3216 7.9864 27.8496 9.81771 30.7357C10.2337 31.4277 10.8159 31.9991 11.5088 32.3955C12.2018 32.7919 12.9824 33 13.7762 33C14.57 33 15.3506 32.7919 16.0436 32.3955C16.7365 31.9991 17.3187 31.4277 17.7347 30.7357C21.3929 25.2442 25.4752 20.0617 29.9424 15.2378C31.9836 13.0386 35.9371 9.22879 39.5882 5.78613C39.5882 5.78613 40.8999 3.34363 38.8411 1.21894Z" fill="white"/>
</svg>
