<svg width="67" height="67" viewBox="0 0 67 67" fill="none" xmlns="http://www.w3.org/2000/svg">
<path d="M58.3 21.0754L20.7 58.6754L1 65.5754L7.9 45.8754L45.5 8.27539L58.3 21.0754Z" fill="white"/>
<path d="M45.5308 8.32564L7.91309 45.9434L20.7116 58.7419L58.3293 21.1241L45.5308 8.32564Z" fill="#FFC408"/>
<path opacity="0.2" d="M54.5503 17.3647L16.9326 54.9824L20.6802 58.73L58.298 21.1123L54.5503 17.3647Z" fill="#242C88"/>
<path d="M4 56.9746L1 65.3746L9.4 62.3746L4 56.9746Z" fill="#5E61A3"/>
<path d="M58.3 21.0754L20.7 58.6754L1 65.5754L7.9 45.8754L45.5 8.27539L58.3 21.0754Z" stroke="#242C88" stroke-width="2" stroke-miterlimit="10" stroke-linecap="round" stroke-linejoin="round"/>
<path d="M58.3 21.075L64.3 15.075C66 13.375 66 10.675 64.3 9.075L57.5 2.275C55.8 0.575 53.1 0.575 51.5 2.275L45.5 8.275L58.3 21.075Z" fill="#F3877E"/>
<path d="M58.3 21.075L64.3 15.075C66 13.375 66 10.675 64.3 9.075L57.5 2.275C55.8 0.575 53.1 0.575 51.5 2.275L45.5 8.275L58.3 21.075Z" stroke="#242C88" stroke-width="2" stroke-miterlimit="10" stroke-linecap="round" stroke-linejoin="round"/>
<path d="M27.5 44.3742L53.8 18.0742" stroke="#242C88" stroke-width="2" stroke-miterlimit="10" stroke-linecap="round" stroke-linejoin="round"/>
<path d="M16.9004 54.975L23.0004 48.875" stroke="#242C88" stroke-width="2" stroke-miterlimit="10" stroke-linecap="round" stroke-linejoin="round"/>
<path d="M47.7697 6.13074L42.5371 11.3633L55.3356 24.1618L60.5682 18.9293L47.7697 6.13074Z" fill="white"/>
<path opacity="0.2" d="M47.7697 6.13074L42.5371 11.3633L55.3356 24.1618L60.5682 18.9293L47.7697 6.13074Z" fill="#242C88"/>
<path d="M47.7697 6.13074L42.5371 11.3633L55.3356 24.1618L60.5682 18.9293L47.7697 6.13074Z" stroke="#242C88" stroke-width="2" stroke-miterlimit="10" stroke-linecap="round" stroke-linejoin="round"/>
</svg>
