<svg width="40" height="33" fill="none" xmlns="http://www.w3.org/2000/svg"><path d="M38.841 1.219C36.782-.906 33.496.393 33.496.393a41.423 41.423 0 0 0-10.033 8.21 135.41 135.41 0 0 0-9.875 12.18C11.308 18.415 3.737 11.274.165 16.2a.859.859 0 0 0 0 1.015c1.552 2.107 7.821 10.635 9.653 13.52a4.698 4.698 0 0 0 1.69 1.66 4.565 4.565 0 0 0 2.268.605 4.56 4.56 0 0 0 2.268-.605 4.698 4.698 0 0 0 1.69-1.66 123.919 123.919 0 0 1 12.208-15.497c2.042-2.2 5.995-6.01 9.646-9.452 0 0 1.312-2.442-.747-4.567Z" fill="#fff"/></svg>