<svg width="22" height="25" fill="none" xmlns="http://www.w3.org/2000/svg"><path d="M15 25H7a5.103 5.103 0 0 1-3.536-1.408A4.716 4.716 0 0 1 2 20.192V8.654c0-.255.105-.5.293-.68A1.02 1.02 0 0 1 3 7.692c.265 0 .52.102.707.282.188.18.293.425.293.68v11.538c0 .765.316 1.499.879 2.04A3.062 3.062 0 0 0 7 23.077h8a3.06 3.06 0 0 0 2.121-.845 2.83 2.83 0 0 0 .879-2.04V8.654c0-.255.105-.5.293-.68A1.02 1.02 0 0 1 19 7.692c.265 0 .52.102.707.282.188.18.293.425.293.68v11.538a4.716 4.716 0 0 1-1.465 3.4A5.103 5.103 0 0 1 15 25Zm6-19.23H1a1.02 1.02 0 0 1-.707-.282.943.943 0 0 1-.293-.68c0-.255.105-.5.293-.68A1.02 1.02 0 0 1 1 3.846h20c.265 0 .52.101.707.282.188.18.293.425.293.68 0 .255-.105.5-.293.68a1.02 1.02 0 0 1-.707.281Z" fill="#598BB9"/><path d="M15 5.77H7a1.02 1.02 0 0 1-.707-.282.943.943 0 0 1-.293-.68V2.885c0-.765.316-1.5.879-2.04A3.062 3.062 0 0 1 9 0h4a3.06 3.06 0 0 1 2.121.845A2.83 2.83 0 0 1 16 2.885v1.923c0 .255-.105.5-.293.68a1.02 1.02 0 0 1-.707.281ZM8 3.845h6v-.961c0-.255-.105-.5-.293-.68A1.02 1.02 0 0 0 13 1.923H9c-.265 0-.52.101-.707.282a.943.943 0 0 0-.293.68v.961ZM9 19.23a1.02 1.02 0 0 1-.707-.28.943.943 0 0 1-.293-.68v-6.732c0-.255.105-.5.293-.68A1.02 1.02 0 0 1 9 10.577c.265 0 .52.101.707.281.188.18.293.425.293.68v6.731c0 .255-.105.5-.293.68a1.02 1.02 0 0 1-.707.282Zm4 0a1.02 1.02 0 0 1-.707-.28.943.943 0 0 1-.293-.68v-6.732c0-.255.105-.5.293-.68a1.02 1.02 0 0 1 .707-.281c.265 0 .52.101.707.281.188.18.293.425.293.68v6.731c0 .255-.105.5-.293.68a1.02 1.02 0 0 1-.707.282Z" fill="#598BB9"/></svg>