<svg width="67" height="67" fill="none" xmlns="http://www.w3.org/2000/svg"><path d="m58.3 21.075-37.6 37.6-19.7 6.9 6.9-19.7 37.6-37.6 12.8 12.8Z" fill="#fff"/><path d="M45.53 8.326 7.914 45.943l12.799 12.799L58.33 21.124 45.531 8.326Z" fill="#FFC408"/><path opacity=".2" d="M54.55 17.365 16.933 54.982l3.747 3.748 37.618-37.618-3.748-3.747Z" fill="#242C88"/><path d="m4 56.975-3 8.4 8.4-3-5.4-5.4Z" fill="#5E61A3"/><path d="m58.3 21.075-37.6 37.6-19.7 6.9 6.9-19.7 37.6-37.6 12.8 12.8Z" stroke="#242C88" stroke-width="2" stroke-miterlimit="10" stroke-linecap="round" stroke-linejoin="round"/><path d="m58.3 21.075 6-6c1.7-1.7 1.7-4.4 0-6l-6.8-6.8c-1.7-1.7-4.4-1.7-6 0l-6 6 12.8 12.8Z" fill="#F3877E"/><path d="m58.3 21.075 6-6c1.7-1.7 1.7-4.4 0-6l-6.8-6.8c-1.7-1.7-4.4-1.7-6 0l-6 6 12.8 12.8ZM27.5 44.374l26.3-26.3M16.9 54.975l6.1-6.1" stroke="#242C88" stroke-width="2" stroke-miterlimit="10" stroke-linecap="round" stroke-linejoin="round"/><path d="m47.77 6.13-5.233 5.233 12.799 12.799 5.232-5.233L47.77 6.131Z" fill="#fff"/><path opacity=".2" d="m47.77 6.13-5.233 5.233 12.799 12.799 5.232-5.233L47.77 6.131Z" fill="#242C88"/><path d="m47.77 6.13-5.233 5.233 12.799 12.799 5.232-5.233L47.77 6.131Z" stroke="#242C88" stroke-width="2" stroke-miterlimit="10" stroke-linecap="round" stroke-linejoin="round"/></svg>